<?xml version="1.0" encoding="UTF-8"?>
<svg id="Layer_1" data-name="Layer 1" xmlns="http://www.w3.org/2000/svg" viewBox="0 0 960 960">
  <defs>
    <style>
      .cls-1, .cls-2, .cls-3, .cls-4, .cls-5, .cls-6, .cls-7, .cls-8 {
        stroke-width: 0px;
      }

      .cls-2 {
        fill: #7b1b67;
      }

      .cls-3 {
        fill: #fff;
      }

      .cls-4 {
        fill: #fcb833;
      }

      .cls-5 {
        fill: #f6921e;
      }

      .cls-6 {
        fill: #f05a22;
      }

      .cls-7 {
        fill: #ed3d7f;
      }

      .cls-8 {
        fill: #c30d42;
      }
    </style>
  </defs>
  <rect class="cls-1" x="23.48" y="66.75" width="913.05" height="826.5"/>
  <g>
    <path class="cls-3" d="m364.02,548.72c-22.34-9.45-27.49-20.62-29.21-27.49v-6.87h-.86.86c.86-4.3,2.58-8.59,5.15-12.89l.86-.86c12.03-17.18,40.38-33.5,74.74-43.81,24.05-6.87,48.11-9.45,67.01-7.73,18.9,1.72,30.07,7.73,32.64,17.18,2.58,9.45-6.01,22.33-24.05,34.36l-.86.86,15.46,11.17s15.46,12.03,32.64-5.15c16.32-18.04,22.33-36.94,18.04-52.4-5.15-18.9-24.05-32.64-52.4-38.66-28.35-6.01-63.57-4.3-98.79,6.01-35.22,9.45-66.15,26.63-87.62,46.39-21.48,20.62-30.07,42.09-24.91,60.13,1.72,7.73,6.87,14.6,13.74,20.62H74.52c-3.44,0-7.73,1.72-11.17,5.15-8.59,8.59-13.74,24.91-13.74,26.63v.86h168.38v9.45c-5.15.86-91.06,22.34-140.03,72.16-6.87,6.87-7.73,17.18-2.58,25.77,18.04,25.77,65.29,74.74,182.12,109.1h.86v-217.34h66.15v186.42c0,4.29,2.58,9.45,6.87,13.74,11.17,12.03,31.79,17.18,32.64,17.18h.86v-217.34h185.56v10.31c-5.15.86-91.06,22.34-140.03,72.16-6.87,6.87-7.73,17.18-2.58,25.77,18.04,25.77,65.29,74.74,182.12,109.1h.86v-217.34c3.44,0,7.73-1.72,11.17-5.15,7.73-7.73,12.89-22.34,13.74-26.63v-.86h-251.7Zm-146.04,193.29c-7.73-2.58-53.26-19.76-89.34-54.98-1.72-.86-1.72-2.58-1.72-4.3s.86-3.44,1.72-4.29c12.03-11.17,45.53-37.8,89.34-43.81v107.38Zm333.31,0c-7.73-2.58-53.26-19.76-89.34-54.98-.86-.86-1.72-2.58-1.72-4.3s.86-3.44,1.72-4.29c12.03-11.17,45.53-37.8,89.34-43.81v107.38Z"/>
    <path class="cls-3" d="m137.24,831.35c14.71,0,26.63-12.31,26.63-27.49s-11.92-27.49-26.63-27.49-26.63,12.31-26.63,27.49,11.92,27.49,26.63,27.49Z"/>
    <path class="cls-3" d="m605.43,128.65v185.56l136.59,79.03-144.32,83.33,159.78,92.78,152.91-88.48v-176.11l-304.96-176.11Z"/>
    <path class="cls-7" d="m613.14,476.56l144.32,84.19v-167.52l-144.32,83.33Z"/>
    <path class="cls-4" d="m613.14,142.39v167.52l144.32-84.19-144.32-83.33Z"/>
    <path class="cls-5" d="m757.47,225.72l-144.32,84.19,144.32,83.33v-167.52Z"/>
    <path class="cls-2" d="m902.65,476.56v-166.66l-145.18,83.33,145.18,83.33Z"/>
    <path class="cls-6" d="m757.47,393.23l145.18-83.33-145.18-84.19v167.52Z"/>
    <path class="cls-8" d="m902.65,476.56l-145.18-83.33v167.52l145.18-84.19Z"/>
  </g>
</svg>